<svg xmlns="http://www.w3.org/2000/svg" width="260" height="48" viewBox="0 0 260 48">
  <defs>
    <style>
      .cls-1 {
        fill: #0089d9;
      }

      .cls-1, .cls-2, .cls-3, .cls-4, .cls-5 {
        fill-rule: evenodd;
      }

      .cls-2 {
        fill: #c8c8c8;
      }

      .cls-3 {
        fill: #39a6e6;
      }

      .cls-4 {
        fill: #fff;
      }

      .cls-5 {
        fill: #646464;
      }
    </style>
  </defs>
  <title>48_help</title>
  <g id="Help">
    <path class="cls-1" d="M24,31a1,1,0,1,0,1,1A.9.9,0,0,0,24,31ZM24,7A17,17,0,1,0,41,24,17,17,0,0,0,24,7Zm0,32A15,15,0,1,1,39,24,15,15,0,0,1,24,39Zm0-23a5,5,0,0,0-5,5,1,1,0,0,0,2,0,3,3,0,0,1,3-3,2.9,2.9,0,0,1,3,3,2.9,2.9,0,0,1-1.6,2.6C22.8,25,23,27.9,23,29a1,1,0,0,0,2,0c0-1.2-.2-2.7,1.4-3.6A5.1,5.1,0,0,0,29,21,5,5,0,0,0,24,16Z"/>
    <path class="cls-2" d="M77,31a1,1,0,1,0,1,1A.9.9,0,0,0,77,31Zm0-15a5,5,0,0,0-5,5,1,1,0,0,0,2,0,3,3,0,0,1,3-3,2.9,2.9,0,0,1,3,3,2.9,2.9,0,0,1-1.6,2.6C75.8,25,76,27.9,76,29a1,1,0,0,0,2,0c0-1.2-.2-2.7,1.4-3.6A5.1,5.1,0,0,0,82,21,5,5,0,0,0,77,16Zm0-9A17,17,0,1,0,94,24,17,17,0,0,0,77,7Zm0,32A15,15,0,1,1,92,24,15,15,0,0,1,77,39Z"/>
    <path class="cls-3" d="M130,16a5,5,0,0,0-5,5,1,1,0,0,0,2,0,3,3,0,0,1,3-3,2.9,2.9,0,0,1,3,3,2.9,2.9,0,0,1-1.6,2.6C128.8,25,129,27.9,129,29a1,1,0,0,0,2,0c0-1.2-.2-2.7,1.4-3.6A5.1,5.1,0,0,0,135,21,5,5,0,0,0,130,16Zm0,15a1,1,0,1,0,1,1A.9.9,0,0,0,130,31Zm0-24a17,17,0,1,0,17,17A17,17,0,0,0,130,7Zm0,32a15,15,0,1,1,15-15A15,15,0,0,1,130,39Z"/>
    <path class="cls-4" d="M183,16a5,5,0,0,0-5,5,1,1,0,0,0,2,0,3,3,0,0,1,3-3,2.9,2.9,0,0,1,3,3,2.9,2.9,0,0,1-1.6,2.6C181.8,25,182,27.9,182,29a1,1,0,0,0,2,0c0-1.2-.2-2.7,1.4-3.6A5.1,5.1,0,0,0,188,21,5,5,0,0,0,183,16Zm0,15a1,1,0,1,0,1,1A.9.9,0,0,0,183,31Zm0-24a17,17,0,1,0,17,17A17,17,0,0,0,183,7Zm0,32a15,15,0,1,1,15-15A15,15,0,0,1,183,39Z"/>
    <path class="cls-5" d="M236,31a1,1,0,1,0,1,1A.9.9,0,0,0,236,31Zm0-24a17,17,0,1,0,17,17A17,17,0,0,0,236,7Zm0,32a15,15,0,1,1,15-15A15,15,0,0,1,236,39Zm0-23a5,5,0,0,0-5,5,1,1,0,0,0,2,0,3,3,0,0,1,3-3,2.9,2.9,0,0,1,3,3,2.9,2.9,0,0,1-1.6,2.6C234.8,25,235,27.9,235,29a1,1,0,0,0,2,0c0-1.2-.2-2.7,1.4-3.6A5.1,5.1,0,0,0,241,21,5,5,0,0,0,236,16Z"/>
  </g>
</svg>
